<?xml version="1.0" standalone="no"?>
<!DOCTYPE svg PUBLIC "-//W3C//DTD SVG 20010904//EN"
 "http://www.w3.org/TR/2001/REC-SVG-20010904/DTD/svg10.dtd">
<svg version="1.0" xmlns="http://www.w3.org/2000/svg"
 width="900.000000pt" height="900.000000pt" viewBox="0 0 900.000000 900.000000"
 preserveAspectRatio="xMidYMid meet">
<metadata>
Created by potrace 1.11, written by Peter Selinger 2001-2013
</metadata>
<g transform="translate(0.000000,900.000000) scale(0.100000,-0.100000)"
fill="#000000" stroke="none">
<path d="M5815 8151 c-251 -45 -527 -164 -800 -345 -119 -79 -320 -233 -423
-324 -73 -65 -85 -72 -100 -60 -9 7 -46 38 -82 69 -372 321 -789 552 -1155
640 -135 32 -322 37 -450 10 -394 -80 -633 -418 -700 -986 -33 -281 -5 -657
75 -1023 7 -29 10 -55 8 -56 -1 -2 -52 -20 -112 -40 -553 -186 -992 -460
-1220 -763 -153 -204 -221 -437 -185 -639 58 -328 302 -626 730 -893 189 -118
485 -253 722 -331 53 -17 67 -25 63 -38 -23 -77 -68 -358 -87 -540 -17 -164
-7 -488 20 -627 44 -233 98 -385 187 -521 128 -195 286 -303 518 -353 188 -41
351 -23 646 71 272 86 606 286 927 554 l121 102 54 -47 c166 -148 452 -357
593 -436 116 -64 193 -104 245 -125 30 -12 64 -26 75 -30 83 -34 227 -75 340
-96 118 -21 298 -15 408 15 304 81 519 328 621 713 54 204 61 272 61 583 0
301 -9 404 -55 647 -11 57 -20 108 -20 115 0 6 24 19 53 29 214 70 565 232
738 341 271 170 442 329 574 533 159 244 177 549 50 803 -130 260 -427 518
-830 722 -137 69 -395 177 -518 216 -89 27 -90 28 -78 80 22 100 52 295 66
435 52 521 -32 1005 -222 1266 -135 187 -283 285 -490 327 -122 25 -233 26
-368 2z m-2622 -628 c255 -80 581 -276 845 -510 l43 -38 -82 -95 c-114 -132
-268 -326 -351 -441 l-70 -96 -77 -7 c-108 -10 -389 -51 -569 -85 -105 -19
-155 -25 -157 -17 -8 27 -37 191 -51 291 -22 157 -29 457 -15 584 20 170 84
355 142 407 53 48 201 51 342 7z m2927 15 c69 -47 137 -200 165 -374 22 -135
20 -461 -5 -654 -29 -230 -42 -285 -66 -284 -10 1 -95 15 -189 32 -178 33
-401 66 -521 77 -72 7 -72 7 -105 53 -64 92 -265 349 -365 468 l-102 121 56
50 c280 245 589 432 842 509 107 33 243 33 290 2z m-1518 -1110 l30 -38 -127
0 -127 0 44 51 c23 28 52 62 63 75 l20 24 33 -37 c19 -21 47 -55 64 -75z m485
-667 c45 -23 383 -588 557 -928 l47 -92 -57 -113 c-113 -222 -298 -543 -460
-799 l-74 -117 -148 -8 c-183 -10 -767 -10 -924 0 l-118 8 -93 146 c-165 258
-301 495 -427 738 l-73 142 93 178 c101 195 98 189 190 349 74 129 280 461
308 495 16 20 1141 22 1179 1z m-1988 -148 c-19 -32 -46 -80 -61 -107 -30 -57
-25 -62 -71 64 l-24 65 76 16 c120 26 118 28 80 -38z m2884 41 c74 -14 87 -19
81 -33 -3 -9 -18 -49 -32 -88 -14 -40 -28 -73 -33 -73 -4 0 -25 33 -48 73 -22
39 -50 87 -62 105 -25 38 -26 38 94 16z m-3623 -186 c5 -13 47 -126 94 -253
47 -126 110 -285 140 -353 l55 -123 -79 -184 c-44 -102 -112 -274 -151 -382
-39 -109 -73 -199 -74 -201 -4 -5 -287 109 -394 159 -387 182 -681 447 -681
616 0 193 360 470 870 668 80 31 154 60 165 65 32 14 45 11 55 -12z m4513 -60
c337 -134 567 -270 725 -429 187 -188 183 -288 -18 -490 -113 -114 -249 -207
-445 -306 -140 -70 -404 -181 -445 -185 -19 -3 -26 11 -66 122 -25 69 -92 235
-149 370 -58 136 -105 251 -105 258 0 6 31 82 68 169 76 175 122 293 179 456
l37 108 34 -6 c18 -3 102 -33 185 -67z m-824 -1485 c17 -45 31 -84 31 -86 0
-3 -19 -7 -42 -10 -24 -3 -70 -10 -102 -16 -33 -6 -61 -10 -62 -8 0 1 29 54
65 118 47 83 68 112 73 100 4 -9 20 -53 37 -98z m-2968 -24 c33 -56 58 -103
57 -104 -5 -4 -178 24 -187 30 -6 3 0 34 14 74 26 77 44 115 52 108 3 -3 31
-52 64 -108z m3172 -666 c22 -80 45 -253 58 -442 15 -198 2 -422 -31 -554 -38
-150 -113 -279 -180 -307 -55 -23 -221 -8 -330 29 -226 78 -512 257 -767 479
l-63 54 28 33 c146 176 225 275 335 425 72 96 131 176 132 178 1 1 60 9 131
18 162 18 428 59 542 83 116 25 140 25 145 4z m-3367 -13 c150 -28 424 -66
572 -81 l124 -12 103 -136 c86 -115 335 -424 354 -441 3 -3 17 -17 29 -32 l24
-26 -43 -39 c-103 -93 -338 -264 -444 -323 -200 -112 -300 -155 -437 -190
-104 -27 -225 -27 -279 0 -73 38 -132 150 -166 316 -25 123 -25 527 0 694 18
122 48 290 51 290 1 0 51 -9 112 -20z m1754 -137 c0 -5 -66 -86 -115 -141 -9
-10 -26 5 -79 68 l-67 80 131 0 c71 0 130 -3 130 -7z"/>
<path d="M4410 5544 c-162 -31 -252 -63 -348 -127 -116 -78 -219 -192 -280
-312 -69 -137 -99 -352 -68 -504 35 -172 88 -277 200 -397 309 -333 814 -350
1145 -39 191 179 285 464 236 720 -59 317 -285 558 -600 640 -61 16 -239 28
-285 19z"/>
</g>
</svg>
